<svg width="96" height="96" viewBox="0 0 96 96" fill="none" xmlns="http://www.w3.org/2000/svg">
<g clip-path="url(#clip0_5962_10196)">
<rect width="96" height="96" fill="#161616"/>
<path d="M61.1947 33.5798C60.3759 34.2828 59.9976 35.3713 60.2042 36.4304L65.0925 61.464L41.4972 53.0107L41.4911 53.0082C40.8828 52.7945 40.4359 52.2752 40.3145 51.6423L35.8615 26.9867C35.7985 26.6376 35.9248 26.2811 36.1939 26.0501L55.7353 9.27215C56.0356 9.01432 56.45 8.93636 56.8236 9.06756L56.829 9.06936L80.3278 17.1525L61.1947 33.5798Z" stroke="white" stroke-width="2"/>
<path d="M49.4885 38.0793C50.3335 38.3845 50.9506 39.1154 51.1086 39.9987L51.1083 39.9996L55.3602 63.6937C55.4581 64.2419 55.429 64.495 55.3702 64.6578C55.3114 64.8206 55.1723 65.0344 54.7461 65.3938L54.7465 65.3929L36.3355 80.9018L36.3352 80.9028C35.649 81.4799 34.7063 81.6487 33.8625 81.3439L12.6095 73.6679L12.4797 73.6107C11.8645 73.2878 11.7528 72.4219 12.31 71.9587L29.7732 57.4438L29.7789 57.4396C30.8195 56.562 31.3109 55.198 31.0714 53.8581L26.9496 29.9389L49.4885 38.0793Z" stroke="white" stroke-width="2"/>
</g>
<defs>
<clipPath id="clip0_5962_10196">
<rect width="96" height="96" fill="white"/>
</clipPath>
</defs>
</svg>
