<svg width="96" height="96" viewBox="0 0 96 96" fill="none" xmlns="http://www.w3.org/2000/svg">
<path d="M31.7588 40.3087C30.9894 39.8129 30.5141 38.8866 30.5141 37.8829V1.98063C30.5141 1.22711 29.7946 0.754988 29.2185 1.13331L2.29556 19.0271C1.49341 19.5524 1 20.5216 1 21.5722V57.5007C1 58.4903 1.46216 59.4058 2.21458 59.9068L28.7885 77.5985C29.858 78.2989 31.1729 78.2989 32.2424 77.5985L59.5981 59.9455C60.1742 59.5672 60.1742 58.626 59.5981 58.2477L31.7588 40.3087Z" fill="white"/>
<path d="M34.941 38.2796L62.2771 55.9367C63.3536 56.6218 64.024 57.904 64.0381 59.3046L64.157 90.9796C64.165 93.1361 66.235 94.4646 67.8706 93.363L91.7775 77.2608C93.1054 76.3664 93.9112 74.7369 93.8949 72.9888L93.573 39.4117C93.5554 37.6609 93.1576 36.9002 91.812 36.0438L65.9983 19.6364C64.6527 18.78 63.0079 18.8048 61.68 19.6992L34.0778 38.2904C34.3305 38.1238 34.6526 38.0959 34.941 38.2796Z" fill="white"/>
</svg>
